<svg width="20" height="20" viewBox="0 0 20 20" fill="none" xmlns="http://www.w3.org/2000/svg">
<path d="M7.13385 3.07495C6.22392 3.45161 5.39708 4.00378 4.70052 4.69995M3.075 7.13338C2.69713 8.04196 2.50175 9.01602 2.5 10M3.07454 12.8666C3.4512 13.7766 4.00337 14.6034 4.69954 15.3M7.13379 16.925C8.04237 17.3029 9.01643 17.4983 10.0005 17.5M12.8662 16.925C13.7761 16.5483 14.603 15.9962 15.2995 15.3M16.9255 12.8667C17.3033 11.9581 17.4987 10.984 17.5005 10M16.9245 7.13335C16.5478 6.22341 15.9956 5.39657 15.2995 4.70001M12.8667 3.075C11.9581 2.69713 10.984 2.50175 10 2.5M11.6667 11.6667L8.33333 8.33333M8.33333 11.6667L11.6667 8.33333" stroke="#FF2F2F" stroke-width="2" stroke-linecap="round" stroke-linejoin="round"/>
</svg>
