<svg width="24" height="24" viewBox="0 0 24 24" fill="none" xmlns="http://www.w3.org/2000/svg">
<path d="M17 12C17 14.7614 14.7614 17 12 17C9.23858 17 7 14.7614 7 12C7 9.23858 9.23858 7 12 7" stroke="#17A34A" stroke-width="1.5" stroke-linecap="round"/>
<path d="M14 2.20004C13.3538 2.06886 12.6849 2 12 2C6.47715 2 2 6.47715 2 12C2 17.5228 6.47715 22 12 22C17.5228 22 22 17.5228 22 12C22 11.3151 21.9311 10.6462 21.8 10" stroke="#17A34A" stroke-width="1.5" stroke-linecap="round"/>
<path d="M12.0312 11.9625L16.5842 7.40961M19.7414 4.34463L19.1882 2.35749C19.0863 2.03012 18.6923 1.89966 18.4268 2.11663C16.9907 3.29019 15.4263 4.87092 16.7039 7.3642C19.278 8.56456 20.7476 6.94585 21.8743 5.58531C22.0985 5.31461 21.9633 4.90768 21.6257 4.81006L19.7414 4.34463Z" stroke="#17A34A" stroke-width="1.5" stroke-linecap="round" stroke-linejoin="round"/>
</svg>
