<svg width="48" height="48" viewBox="0 0 48 48" fill="none" xmlns="http://www.w3.org/2000/svg">
<path d="M42.3488 19.2787C41.6419 18.54 40.9106 17.7788 40.635 17.1094C40.38 16.4963 40.365 15.48 40.35 14.4956C40.3219 12.6656 40.2919 10.5919 38.85 9.15C37.4081 7.70812 35.3344 7.67812 33.5044 7.65C32.52 7.635 31.5037 7.62 30.8906 7.365C30.2231 7.08937 29.46 6.35812 28.7212 5.65125C27.4275 4.40812 25.9575 3 24 3C22.0425 3 20.5744 4.40812 19.2787 5.65125C18.54 6.35812 17.7788 7.08937 17.1094 7.365C16.5 7.62 15.48 7.635 14.4956 7.65C12.6656 7.67812 10.5919 7.70812 9.15 9.15C7.70812 10.5919 7.6875 12.6656 7.65 14.4956C7.635 15.48 7.62 16.4963 7.365 17.1094C7.08937 17.7769 6.35812 18.54 5.65125 19.2787C4.40812 20.5725 3 22.0425 3 24C3 25.9575 4.40812 27.4256 5.65125 28.7212C6.35812 29.46 7.08937 30.2213 7.365 30.8906C7.62 31.5037 7.635 32.52 7.65 33.5044C7.67812 35.3344 7.70812 37.4081 9.15 38.85C10.5919 40.2919 12.6656 40.3219 14.4956 40.35C15.48 40.365 16.4963 40.38 17.1094 40.635C17.7769 40.9106 18.54 41.6419 19.2787 42.3488C20.5725 43.5919 22.0425 45 24 45C25.9575 45 27.4256 43.5919 28.7212 42.3488C29.46 41.6419 30.2213 40.9106 30.8906 40.635C31.5037 40.38 32.52 40.365 33.5044 40.35C35.3344 40.3219 37.4081 40.2919 38.85 38.85C40.2919 37.4081 40.3219 35.3344 40.35 33.5044C40.365 32.52 40.38 31.5037 40.635 30.8906C40.9106 30.2231 41.6419 29.46 42.3488 28.7212C43.5919 27.4275 45 25.9575 45 24C45 22.0425 43.5919 20.5744 42.3488 19.2787ZM32.5613 20.5613L22.0613 31.0613C21.9219 31.2007 21.7565 31.3114 21.5744 31.3868C21.3923 31.4623 21.1971 31.5012 21 31.5012C20.8029 31.5012 20.6077 31.4623 20.4256 31.3868C20.2435 31.3114 20.0781 31.2007 19.9387 31.0613L15.4387 26.5613C15.1573 26.2798 14.9992 25.898 14.9992 25.5C14.9992 25.102 15.1573 24.7202 15.4387 24.4387C15.7202 24.1573 16.102 23.9992 16.5 23.9992C16.898 23.9992 17.2798 24.1573 17.5613 24.4387L21 27.8794L30.4387 18.4387C30.5781 18.2994 30.7436 18.1888 30.9257 18.1134C31.1077 18.038 31.3029 17.9992 31.5 17.9992C31.6971 17.9992 31.8923 18.038 32.0743 18.1134C32.2564 18.1888 32.4219 18.2994 32.5613 18.4387C32.7006 18.5781 32.8112 18.7436 32.8866 18.9257C32.962 19.1077 33.0008 19.3029 33.0008 19.5C33.0008 19.6971 32.962 19.8923 32.8866 20.0743C32.8112 20.2564 32.7006 20.4219 32.5613 20.5613Z" fill="#17A34A"/>
</svg>
