<svg width="20" height="20" viewBox="0 0 20 20" fill="none" xmlns="http://www.w3.org/2000/svg">
<path d="M16.249 5.83335C15.5625 4.80584 14.6327 3.96389 13.5423 3.38235C12.452 2.80082 11.2348 2.49772 9.99904 2.50001C8.76541 2.49926 7.55069 2.80312 6.46271 3.38461C5.37473 3.96611 4.44717 4.80725 3.76237 5.83335M9.58254 2.5C8.93306 3.5405 8.42156 4.661 8.06087 5.83333M10.416 2.5C11.0661 3.54042 11.5781 4.66091 11.9393 5.83333M16.249 14.1667C15.5625 15.1942 14.6327 16.0361 13.5423 16.6177C12.452 17.1992 11.2348 17.5023 9.99904 17.5C8.76541 17.5008 7.55069 17.1969 6.46271 16.6154C5.37473 16.0339 4.44717 15.1928 3.76237 14.1667M9.58254 17.5C8.93306 16.4595 8.42156 15.339 8.06087 14.1667M10.416 17.5C11.0661 16.4596 11.5781 15.3391 11.9393 14.1667M1.66602 8.33333L2.49935 11.6667L3.74935 8.33333L4.99935 11.6667L5.83268 8.33333M14.166 8.33333L14.9993 11.6667L16.2493 8.33333L17.4993 11.6667L18.3327 8.33333M7.91602 8.33333L8.74935 11.6667L9.99935 8.33333L11.2493 11.6667L12.0827 8.33333" stroke="#2A3342" stroke-width="1.5" stroke-linecap="round" stroke-linejoin="round"/>
<path d="M16.249 5.83335C15.5625 4.80584 14.6327 3.96389 13.5423 3.38235C12.452 2.80082 11.2348 2.49772 9.99904 2.50001C8.76541 2.49926 7.55069 2.80312 6.46271 3.38461C5.37473 3.96611 4.44717 4.80725 3.76237 5.83335M9.58254 2.5C8.93306 3.5405 8.42156 4.661 8.06087 5.83333M10.416 2.5C11.0661 3.54042 11.5781 4.66091 11.9393 5.83333M16.249 14.1667C15.5625 15.1942 14.6327 16.0361 13.5423 16.6177C12.452 17.1992 11.2348 17.5023 9.99904 17.5C8.76541 17.5008 7.55069 17.1969 6.46271 16.6154C5.37473 16.0339 4.44717 15.1928 3.76237 14.1667M9.58254 17.5C8.93306 16.4595 8.42156 15.339 8.06087 14.1667M10.416 17.5C11.0661 16.4596 11.5781 15.3391 11.9393 14.1667M1.66602 8.33333L2.49935 11.6667L3.74935 8.33333L4.99935 11.6667L5.83268 8.33333M14.166 8.33333L14.9993 11.6667L16.2493 8.33333L17.4993 11.6667L18.3327 8.33333M7.91602 8.33333L8.74935 11.6667L9.99935 8.33333L11.2493 11.6667L12.0827 8.33333" stroke="black" stroke-opacity="0.2" stroke-width="1.5" stroke-linecap="round" stroke-linejoin="round"/>
<path d="M16.249 5.83335C15.5625 4.80584 14.6327 3.96389 13.5423 3.38235C12.452 2.80082 11.2348 2.49772 9.99904 2.50001C8.76541 2.49926 7.55069 2.80312 6.46271 3.38461C5.37473 3.96611 4.44717 4.80725 3.76237 5.83335M9.58254 2.5C8.93306 3.5405 8.42156 4.661 8.06087 5.83333M10.416 2.5C11.0661 3.54042 11.5781 4.66091 11.9393 5.83333M16.249 14.1667C15.5625 15.1942 14.6327 16.0361 13.5423 16.6177C12.452 17.1992 11.2348 17.5023 9.99904 17.5C8.76541 17.5008 7.55069 17.1969 6.46271 16.6154C5.37473 16.0339 4.44717 15.1928 3.76237 14.1667M9.58254 17.5C8.93306 16.4595 8.42156 15.339 8.06087 14.1667M10.416 17.5C11.0661 16.4596 11.5781 15.3391 11.9393 14.1667M1.66602 8.33333L2.49935 11.6667L3.74935 8.33333L4.99935 11.6667L5.83268 8.33333M14.166 8.33333L14.9993 11.6667L16.2493 8.33333L17.4993 11.6667L18.3327 8.33333M7.91602 8.33333L8.74935 11.6667L9.99935 8.33333L11.2493 11.6667L12.0827 8.33333" stroke="black" stroke-opacity="0.2" stroke-width="1.5" stroke-linecap="round" stroke-linejoin="round"/>
<path d="M16.249 5.83335C15.5625 4.80584 14.6327 3.96389 13.5423 3.38235C12.452 2.80082 11.2348 2.49772 9.99904 2.50001C8.76541 2.49926 7.55069 2.80312 6.46271 3.38461C5.37473 3.96611 4.44717 4.80725 3.76237 5.83335M9.58254 2.5C8.93306 3.5405 8.42156 4.661 8.06087 5.83333M10.416 2.5C11.0661 3.54042 11.5781 4.66091 11.9393 5.83333M16.249 14.1667C15.5625 15.1942 14.6327 16.0361 13.5423 16.6177C12.452 17.1992 11.2348 17.5023 9.99904 17.5C8.76541 17.5008 7.55069 17.1969 6.46271 16.6154C5.37473 16.0339 4.44717 15.1928 3.76237 14.1667M9.58254 17.5C8.93306 16.4595 8.42156 15.339 8.06087 14.1667M10.416 17.5C11.0661 16.4596 11.5781 15.3391 11.9393 14.1667M1.66602 8.33333L2.49935 11.6667L3.74935 8.33333L4.99935 11.6667L5.83268 8.33333M14.166 8.33333L14.9993 11.6667L16.2493 8.33333L17.4993 11.6667L18.3327 8.33333M7.91602 8.33333L8.74935 11.6667L9.99935 8.33333L11.2493 11.6667L12.0827 8.33333" stroke="black" stroke-opacity="0.2" stroke-width="1.5" stroke-linecap="round" stroke-linejoin="round"/>
<path d="M16.249 5.83335C15.5625 4.80584 14.6327 3.96389 13.5423 3.38235C12.452 2.80082 11.2348 2.49772 9.99904 2.50001C8.76541 2.49926 7.55069 2.80312 6.46271 3.38461C5.37473 3.96611 4.44717 4.80725 3.76237 5.83335M9.58254 2.5C8.93306 3.5405 8.42156 4.661 8.06087 5.83333M10.416 2.5C11.0661 3.54042 11.5781 4.66091 11.9393 5.83333M16.249 14.1667C15.5625 15.1942 14.6327 16.0361 13.5423 16.6177C12.452 17.1992 11.2348 17.5023 9.99904 17.5C8.76541 17.5008 7.55069 17.1969 6.46271 16.6154C5.37473 16.0339 4.44717 15.1928 3.76237 14.1667M9.58254 17.5C8.93306 16.4595 8.42156 15.339 8.06087 14.1667M10.416 17.5C11.0661 16.4596 11.5781 15.3391 11.9393 14.1667M1.66602 8.33333L2.49935 11.6667L3.74935 8.33333L4.99935 11.6667L5.83268 8.33333M14.166 8.33333L14.9993 11.6667L16.2493 8.33333L17.4993 11.6667L18.3327 8.33333M7.91602 8.33333L8.74935 11.6667L9.99935 8.33333L11.2493 11.6667L12.0827 8.33333" stroke="black" stroke-opacity="0.2" stroke-width="1.5" stroke-linecap="round" stroke-linejoin="round"/>
</svg>
